<svg xmlns="http://www.w3.org/2000/svg" viewBox="0 0 100 125" fill="none">
    <!-- 龟背竹 Monstera - 分裂叶片 -->
    <!-- 茎 -->
    <path d="M50 76 Q50 59 52 42 Q52 30 50 20" stroke="#2A2A2A" stroke-width="2"
        stroke-linecap="round" />
    <!-- 左叶（带裂缝） -->
    <path d="M50 39 Q30 28 14 35 Q10 49 18 53 Q30 56 42 51 Q50 53 50 39Z" fill="#9BB882"
        stroke="#2A2A2A" stroke-width="1.6" />
    <path d="M38 51 Q32 45 30 38" stroke="#2A2A2A" stroke-width="1" stroke-linecap="round" />
    <path d="M27 52 Q22 46 20 40" stroke="#2A2A2A" stroke-width="1" stroke-linecap="round" />
    <!-- 右叶（带裂缝） -->
    <path d="M50 45 Q68 34 84 41 Q88 53 80 58 Q68 60 58 55 Q52 53 50 45Z" fill="#9BB882"
        stroke="#2A2A2A" stroke-width="1.6" />
    <path d="M63 55 Q68 48 70 41" stroke="#2A2A2A" stroke-width="1" stroke-linecap="round" />
    <!-- 叶中脉 -->
    <path d="M50 39 Q44 46 42 53" stroke="#2A2A2A" stroke-width="0.9" opacity="0.4" />
    <path d="M50 45 Q56 52 58 57" stroke="#2A2A2A" stroke-width="0.9" opacity="0.4" />
    <!-- 盆沿 -->
    <rect x="22" y="76" width="56" height="8" rx="4" fill="#F5F0E8" stroke="#2A2A2A"
        stroke-width="1.8" />
    <!-- 盆身 -->
    <path d="M24 84 L18 116 Q50 124 82 116 L76 84Z" fill="#F5F0E8" stroke="#2A2A2A"
        stroke-width="1.8" stroke-linejoin="round" />
</svg>
