<svg xmlns="http://www.w3.org/2000/svg" viewBox="0 0 100 125" fill="none">
    <!-- 多肉玫瑰 Succulent - 莲座型 -->
    <!-- 背景外层叶（最大） -->
    <path d="M50 70 Q36 64 24 70 Q28 82 40 78 Q50 76 50 70Z" fill="#A8BF96" stroke="#2A2A2A"
        stroke-width="1.4" />
    <path d="M50 70 Q64 64 76 70 Q72 82 60 78 Q50 76 50 70Z" fill="#A8BF96" stroke="#2A2A2A"
        stroke-width="1.4" />
    <!-- 第二层叶 -->
    <path d="M50 70 Q38 58 30 52 Q28 44 36 44 Q44 50 50 64Z" fill="#B5CC9E" stroke="#2A2A2A"
        stroke-width="1.4" />
    <path d="M50 70 Q62 58 70 52 Q72 44 64 44 Q56 50 50 64Z" fill="#B5CC9E" stroke="#2A2A2A"
        stroke-width="1.4" />
    <path d="M50 70 Q44 54 46 40 Q50 34 54 40 Q56 54 50 70Z" fill="#B5CC9E" stroke="#2A2A2A"
        stroke-width="1.4" />
    <!-- 第三层叶（内） -->
    <path d="M50 68 Q42 60 38 52 Q40 46 46 50 Q50 58 50 68Z" fill="#C5DDB0" stroke="#2A2A2A"
        stroke-width="1.3" />
    <path d="M50 68 Q58 60 62 52 Q60 46 54 50 Q50 58 50 68Z" fill="#C5DDB0" stroke="#2A2A2A"
        stroke-width="1.3" />
    <!-- 内芯 -->
    <ellipse cx="50" cy="64" rx="8" ry="6" fill="#9BB882" stroke="#2A2A2A" stroke-width="1.4" />
    <!-- 中心点 -->
    <circle cx="50" cy="63" r="3.5" fill="#8AAD72" stroke="#2A2A2A" stroke-width="1.2" />
    <circle cx="50" cy="62" r="1.5" fill="#7A9D62" />
    <!-- 盆沿 -->
    <rect x="22" y="76" width="56" height="8" rx="4" fill="#F5F0E8" stroke="#2A2A2A"
        stroke-width="1.8" />
    <!-- 盆身 -->
    <path d="M24 84 L18 116 Q50 124 82 116 L76 84Z" fill="#F5F0E8" stroke="#2A2A2A"
        stroke-width="1.8" stroke-linejoin="round" />
</svg>
